# xmcd
#
# Track frame offsets:
#	150
#	11959
#	24855
#	37040
#	49241
#	59896
#	71853
#	82888
#	93321
#	104972
#	114158
#	123407
#	134837
#	143774
#	151350
#	162320
#	174725
#	185520
#	195241
#	204971
#	215031
#	224552
#	236510
#	245742
#	258332
#
# Disc length: 3622 seconds
#
# Revision: 1
# Processed by: cddbd v1.5.2PL0 Copyright (c) Steve Scherf et al.
# Submitted via: audiograbber 1.83.01
#
DISCID=800e2419
DTITLE=Jim Reeves - The Best Of Jim Reeves Disc 3
DYEAR=2014
DGENRE=Country
TTITLE0=According To My Heart
TTITLE1=Have I Told You Lately That I Love You
TTITLE2=Blue Skies
TTITLE3=Precious Memories
TTITLE4=Two Shadows On Your Window
TTITLE5=Mexican Joe
TTITLE6=Just Walking In the Rain
TTITLE7=The Wreck Of The Number Nine
TTITLE8=I Missed Me
TTITLE9=Sweet Sue, Just You
TTITLE10=What Would You Do
TTITLE11=Penny Candy
TTITLE12=Waitin' For A Train
TTITLE13=Till The End Of The World
TTITLE14=I'm Hurtin' In Side
TTITLE15=Drinking Tequila
TTITLE16=Yonder Comes A Sucker
TTITLE17=Danny Boy
TTITLE18=Is This Me ?
TTITLE19=You'll Never Be Mine Again
TTITLE20=Ramona
TTITLE21=Don't Tell Me
TTITLE22=You're Free To Go
TTITLE23=I Can't Stop Loving You
TTITLE24=Goodnight Irene
EXTD=
EXTT0=
EXTT1=
EXTT2=
EXTT3=
EXTT4=
EXTT5=
EXTT6=
EXTT7=
EXTT8=
EXTT9=
EXTT10=
EXTT11=
EXTT12=
EXTT13=
EXTT14=
EXTT15=
EXTT16=
EXTT17=
EXTT18=
EXTT19=
EXTT20=
EXTT21=
EXTT22=
EXTT23=
EXTT24=
PLAYORDER=
